<svg xmlns="http://www.w3.org/2000/svg" viewBox="0 0 400 400" fill="none" stroke="#d0d0d0" stroke-width="1.5">
  <path d="M200 350 C80 250 40 180 40 130 C40 70 90 30 150 30 C180 30 200 50 200 80 C200 50 220 30 250 30 C310 30 360 70 360 130 C360 180 320 250 200 350"/>
  <path d="M200 300 C110 220 80 165 80 130 C80 90 110 60 150 60 C175 60 195 80 200 100 C205 80 225 60 250 60 C290 60 320 90 320 130 C320 165 290 220 200 300"/>
  <path d="M200 250 C140 190 120 155 120 130 C120 105 140 85 165 85 C185 85 200 105 200 120 C200 105 215 85 235 85 C260 85 280 105 280 130 C280 155 260 190 200 250"/>
  <circle cx="200" cy="200" r="8"/>
  <line x1="200" y1="180" x2="200" y2="130"/>
  <line x1="180" y1="200" x2="130" y2="200"/>
  <line x1="220" y1="200" x2="270" y2="200"/>
</svg>