<svg xmlns="http://www.w3.org/2000/svg" viewBox="0 0 400 400" fill="none" stroke="#d0d0d0" stroke-width="1.5">
  <path d="M200 200 C150 150 80 150 50 200 C20 250 80 300 150 250 C180 230 200 200 200 200 C200 200 220 170 250 150 C320 100 380 150 350 200 C320 250 250 250 200 200"/>
  <path d="M200 200 C160 170 110 170 80 200 C50 230 110 260 150 230 C170 215 200 200 200 200 C200 200 230 185 250 170 C290 140 330 170 310 200 C290 230 240 230 200 200"/>
  <path d="M200 200 C175 185 140 185 120 200 C100 215 130 235 155 220 C170 210 200 200 200 200 C200 200 230 190 245 180 C270 165 295 180 285 200 C275 220 250 220 200 200"/>
  <circle cx="200" cy="200" r="10"/>
  <circle cx="80" cy="200" r="8"/>
  <circle cx="320" cy="200" r="8"/>
</svg>