<svg xmlns="http://www.w3.org/2000/svg" viewBox="0 0 400 400" fill="none" stroke="#d0d0d0" stroke-width="1.5">
  <path d="M200 350 Q200 300 200 280"/>
  <path d="M200 280 Q150 290 120 320 Q160 280 200 280"/>
  <path d="M200 280 Q250 290 280 320 Q240 280 200 280"/>
  <path d="M200 280 Q200 220 200 180"/>
  <path d="M200 180 Q140 200 100 260 Q150 190 200 180"/>
  <path d="M200 180 Q260 200 300 260 Q250 190 200 180"/>
  <path d="M200 180 Q200 120 200 80"/>
  <path d="M200 80 Q130 120 80 200 Q140 110 200 80"/>
  <path d="M200 80 Q270 120 320 200 Q260 110 200 80"/>
  <path d="M200 80 Q180 50 150 30"/>
  <path d="M200 80 Q220 50 250 30"/>
  <path d="M200 80 Q200 40 200 20"/>
  <ellipse cx="200" cy="300" rx="60" ry="20"/>
  <circle cx="200" cy="180" r="25"/>
  <circle cx="200" cy="80" r="20"/>
</svg>