<svg xmlns="http://www.w3.org/2000/svg" viewBox="0 0 400 400" fill="none" stroke="#d0d0d0" stroke-width="1.5">
  <circle cx="200" cy="200" r="175"/>
  <circle cx="200" cy="200" r="130"/>
  <circle cx="200" cy="200" r="85"/>
  <circle cx="200" cy="200" r="40"/>
  <path d="M200 25 C230 80 230 120 200 160 C170 120 170 80 200 25"/>
  <path d="M200 375 C230 320 230 280 200 240 C170 280 170 320 200 375"/>
  <path d="M25 200 C80 230 120 230 160 200 C120 170 80 170 25 200"/>
  <path d="M375 200 C320 230 280 230 240 200 C280 170 320 170 375 200"/>
  <path d="M76 76 C120 90 140 110 160 160 C110 140 90 120 76 76"/>
  <path d="M324 76 C280 90 260 110 240 160 C290 140 310 120 324 76"/>
  <path d="M76 324 C120 310 140 290 160 240 C110 260 90 280 76 324"/>
  <path d="M324 324 C280 310 260 290 240 240 C290 260 310 280 324 324"/>
  <ellipse cx="200" cy="60" rx="15" ry="25"/>
  <ellipse cx="200" cy="340" rx="15" ry="25"/>
  <ellipse cx="60" cy="200" rx="25" ry="15"/>
  <ellipse cx="340" cy="200" rx="25" ry="15"/>
  <circle cx="130" cy="130" r="20"/>
  <circle cx="270" cy="130" r="20"/>
  <circle cx="130" cy="270" r="20"/>
  <circle cx="270" cy="270" r="20"/>
</svg>