<svg xmlns="http://www.w3.org/2000/svg" viewBox="0 0 400 400" fill="none" stroke="#d0d0d0" stroke-width="1.5">
  <circle cx="200" cy="200" r="180"/>
  <circle cx="200" cy="200" r="140"/>
  <circle cx="200" cy="200" r="100"/>
  <circle cx="200" cy="200" r="60"/>
  <circle cx="200" cy="200" r="25"/>
  <line x1="200" y1="20" x2="200" y2="380"/>
  <line x1="20" y1="200" x2="380" y2="200"/>
  <line x1="73" y1="73" x2="327" y2="327"/>
  <line x1="327" y1="73" x2="73" y2="327"/>
  <path d="M200 60 Q240 120 200 140 Q160 120 200 60"/>
  <path d="M200 340 Q240 280 200 260 Q160 280 200 340"/>
  <path d="M60 200 Q120 240 140 200 Q120 160 60 200"/>
  <path d="M340 200 Q280 240 260 200 Q280 160 340 200"/>
  <path d="M100 100 Q150 130 140 140 Q130 150 100 100"/>
  <path d="M300 100 Q250 130 260 140 Q270 150 300 100"/>
  <path d="M100 300 Q150 270 140 260 Q130 250 100 300"/>
  <path d="M300 300 Q250 270 260 260 Q270 250 300 300"/>
  <circle cx="200" cy="80" r="12"/>
  <circle cx="200" cy="320" r="12"/>
  <circle cx="80" cy="200" r="12"/>
  <circle cx="320" cy="200" r="12"/>
  <circle cx="115" cy="115" r="10"/>
  <circle cx="285" cy="115" r="10"/>
  <circle cx="115" cy="285" r="10"/>
  <circle cx="285" cy="285" r="10"/>
</svg>