<svg xmlns="http://www.w3.org/2000/svg" viewBox="0 0 400 400" fill="none" stroke="#d0d0d0" stroke-width="1.5">
  <path d="M200 200 
    C200 190 210 180 220 180
    C240 180 250 200 250 220
    C250 250 220 270 190 270
    C150 270 130 230 130 190
    C130 140 170 110 220 110
    C280 110 320 160 320 220
    C320 290 260 340 190 340
    C110 340 60 280 60 200
    C60 110 130 50 220 50
    C320 50 380 130 380 230"/>
  <circle cx="200" cy="200" r="5"/>
  <circle cx="200" cy="200" r="30"/>
  <circle cx="200" cy="200" r="80"/>
  <circle cx="200" cy="200" r="130"/>
  <circle cx="200" cy="200" r="180"/>
</svg>